<svg width="79" height="106" viewBox="0 0 79 106" fill="none" xmlns="http://www.w3.org/2000/svg">
<g id="Vector">
<path d="M38.411 106V83.8963L37.9693 83.8203L34.3141 94.2006H31.5665L27.9112 83.8203L27.4695 83.8963V106H23.9939V71.4983H27.5304L32.9403 88.6489L38.3501 71.4983H41.8866V106H38.411Z" fill="white"/>
<path d="M0.210179 106V71.4983H3.68575V102.539H7.84974V71.4983H11.3253V102.539H15.4893V71.4983H18.9649V106H0.210179Z" fill="white"/>
<path d="M75.0431 106L68.9967 94.2006H67.2391V106H63.7635V71.4983H67.2391V88.1657L67.6777 88.2477L74.1354 71.4983H77.8577L70.7329 89.9768L78.9452 106H75.0431Z" fill="white"/>
<path d="M49.2337 99.2206H56.0691L52.8768 81.1857H52.4291L49.2368 99.2206H49.2337ZM57.2693 106L56.6814 102.682H48.6184L48.0305 106H44.5032L50.6136 71.4983H54.6893L60.7997 106H57.2693Z" fill="white"/>
<path d="M31.4081 40.8041L3.46339 40.798V36.3675L75.4452 36.4009C74.5862 44.2409 67.9336 50.0935 59.7823 50.0935H31.4233V41.6883L31.4111 40.8071L31.4081 40.8041ZM27.9569 53.5455H59.7793C70.3766 53.5455 79 45.0765 79 34.6689V32.9398L0 32.9064C0.00304608 36.6866 0.00304608 40.4668 0.00609215 44.2469C9.32404 44.2469 18.6389 44.2469 27.9569 44.2469V53.5455Z" fill="white"/>
<path d="M18.5719 28.1052C19.2817 27.7345 20.9936 27.1541 22.3552 27.1784C23.1928 27.1936 24.0914 27.379 25.785 28.0414C26.8146 28.4455 28.1001 28.9469 29.6566 29.1384C30.1196 29.1931 30.5613 29.2204 30.9877 29.2204C32.9494 29.2204 34.5395 28.6735 36.1143 28.0566L36.3092 27.9806C37.3997 27.5522 38.344 27.1845 39.4954 27.1814C40.7291 27.1845 41.7465 27.5825 42.9314 28.0475L43.1325 28.1234C43.8026 28.3848 44.5915 28.6826 45.4992 28.9014L45.6302 28.9348C45.9897 29.0168 46.3369 29.0806 46.6933 29.1293L46.8548 29.1475C47.2751 29.1961 47.6711 29.2204 47.9818 29.2174L48.0915 29.2204C48.1981 29.2204 48.3016 29.2143 48.4022 29.2113L48.6062 29.2022C48.6794 29.1992 48.7494 29.1991 48.8164 29.1931C48.9626 29.184 49.1028 29.1657 49.2855 29.1445L49.9221 29.0533C50.0409 29.0351 50.1567 29.0138 50.2785 28.9895L50.376 28.9682C51.4117 28.7433 52.359 28.3969 53.2271 28.0596L53.4251 27.9837C53.9856 27.7649 54.5156 27.5552 55.0335 27.4124C55.2467 27.3546 55.466 27.3091 55.7097 27.2665L55.798 27.2452C56.0691 27.2057 56.3585 27.1845 56.6448 27.1814C57.8815 27.1845 58.8989 27.5825 60.0808 28.0444L61.8475 28.713V28.6795C62.74 28.9591 63.8671 29.2174 65.2013 29.2174C67.3122 29.2174 68.9144 28.5914 70.3309 28.0384C71.5127 27.5765 72.5362 27.1754 73.776 27.1754C75.0157 27.1754 76.0362 27.5734 77.218 28.0353L78.9909 28.7373V25.0452L78.4152 24.8203C76.95 24.2491 75.5884 23.7781 73.779 23.7781C71.8113 23.7781 70.343 24.3524 68.9205 24.9054C67.7204 25.3764 66.5842 25.8201 65.2074 25.8201C63.8305 25.8201 62.673 25.3673 61.5764 24.9419L61.3114 24.8234C60.3062 24.4314 59.1183 23.9999 57.7353 23.851C57.3789 23.8084 57.053 23.7872 56.7515 23.7841L56.6235 23.7811C54.6588 23.7841 53.1967 24.3554 51.7803 24.9085C50.5831 25.3764 49.4561 25.817 48.0823 25.8201C46.7085 25.817 45.5845 25.3764 44.3905 24.9115L44.1681 24.8203C43.9001 24.717 43.6259 24.6167 43.3304 24.5074L42.9527 24.3797C42.7821 24.325 42.5994 24.2673 42.3435 24.1944C42.2887 24.1761 42.2369 24.1579 42.1333 24.1336L41.6094 24.012C41.4815 23.9847 41.3535 23.9604 41.1799 23.93L41.1129 23.9178C41.0489 23.9026 40.985 23.8905 40.8844 23.8753L40.6864 23.854C40.2691 23.8024 39.8975 23.7781 39.5168 23.7781H39.5137L39.4284 23.7811C39.1939 23.7841 38.9654 23.7932 38.7461 23.8115C38.6669 23.8176 38.5877 23.8267 38.4811 23.8388L38.3105 23.8571C38.2313 23.8662 38.146 23.8753 38.0699 23.8874C37.7653 23.933 37.4728 23.9908 37.1195 24.0759L36.8636 24.1397C36.5834 24.2156 36.3123 24.2977 36.029 24.3919L35.7305 24.4922C35.502 24.5742 35.2736 24.6593 35.0482 24.7444L34.5456 24.9389C33.4459 25.3673 32.3097 25.811 30.939 25.814C29.5652 25.811 28.4717 25.3825 27.2015 24.8872L26.8298 24.7444C25.7424 24.325 24.5575 23.9057 23.0801 23.7993C22.8821 23.7841 22.6841 23.7781 22.4587 23.775L22.346 23.772C22.2973 23.772 22.2485 23.775 22.1876 23.7811C21.8922 23.7872 21.6119 23.8084 21.3439 23.8358C21.0697 23.8631 20.8047 23.9057 20.4635 23.9695C20.3813 23.9847 20.3021 23.9999 20.229 24.0151C19.2756 24.2247 18.4227 24.5347 17.6185 24.8507L17.4175 24.9449C16.3239 25.3734 15.1908 25.814 13.814 25.814C12.4371 25.814 11.2979 25.3704 10.0917 24.8963C8.67523 24.3433 7.21006 23.772 5.23925 23.772C3.42379 23.772 2.03478 24.2551 0.536109 24.8416L0.0243686 25.0391V28.8284L1.79109 28.0323C2.97602 27.5704 3.9995 27.1693 5.23621 27.1693C6.47596 27.1693 7.49944 27.5704 8.68741 28.0323C12.3518 29.4635 13.4484 29.1992 13.8109 29.2083C15.072 29.2387 16.2021 29.0077 17.1646 28.6886C17.8348 28.4486 17.8591 28.406 18.578 28.0961L18.5719 28.1052Z" fill="white"/>
<path d="M3.54259 16.6522C4.38635 8.96425 10.8349 3.43073 19.0563 3.43073H59.9437C68.1621 3.43073 74.6106 8.96121 75.4544 16.6522H3.54259ZM78.9878 18.3661C78.9878 8.06783 70.6233 0 59.9437 0H19.0563C8.37671 0 0.0121843 8.06783 0.0121843 18.3661V20.083H78.9909V18.3661H78.9878Z" fill="white"/>
</g>
</svg>
