<svg width="174" height="149" viewBox="0 0 174 149" fill="none" xmlns="http://www.w3.org/2000/svg">
<g id="&#208;&#191;&#208;&#190;&#208;&#180;&#208;&#191;&#208;&#184;&#209;&#129;&#209;&#140; 1" clip-path="url(#clip0_135_723)">
<g id="&#208;&#161;&#208;&#187;&#208;&#190;&#208;&#185;_x0020_1">
<path id="Vector" fill-rule="evenodd" clip-rule="evenodd" d="M20.2649 139.738C17.1078 135.602 17.8423 132.293 22.4701 129.814C16.2638 125.113 11.8095 120.703 9.10561 116.581C1.26131 105.691 -1.51444 93.7114 0.778367 80.645C4.17303 65.1814 12.033 54.8963 24.3597 49.7926C39.3575 44.5924 53.3988 48.1919 63.1249 58.2889C67.6651 64.6043 69.9517 72.0087 69.9829 80.505C71.8225 80.0243 72.9884 79.2108 73.4808 78.0675C67.7323 59.1926 65.3067 45.9831 66.2038 38.4403C66.8805 33.2635 68.2794 31.4062 70.4018 32.8684C68.5263 33.5544 67.687 36.177 67.8824 40.7378C68.295 50.001 70.4643 61.3984 74.3904 74.9331C74.8968 74.7666 75.2109 74.0588 75.3344 72.8082C75.8658 74.0946 75.7955 75.4759 75.125 76.9521C78.7885 88.0726 80.6202 93.6321 80.6202 93.6321C83.0318 100.284 83.7788 106.179 82.8598 111.322C83.1756 112.704 83.6648 113.68 84.329 114.246C85.0479 114.856 85.7247 114.75 86.3577 113.933C88.2707 111.959 89.2272 110.973 89.2272 110.973C91.6497 108.648 91.2527 114.654 95.4898 115.5C106.094 117.72 98.9814 99.26 96.5401 95.0943C89.2303 81.7541 84.5431 71.5856 82.4754 64.5903C79.0354 53.4278 78.1727 44.3513 79.8856 37.3607C81.361 33.1328 84.1836 31.879 88.352 33.5995C92.4984 35.4692 95.4836 40.5542 97.3091 48.8515C103.007 43.8442 108.722 39.7812 114.453 36.6639C120.704 32.8559 123.829 30.9535 123.829 30.9535C123.968 27.0507 125.017 24.6832 126.978 23.8494C128.608 23.6005 130.169 24.2041 131.667 25.66C140.811 19.0926 148.229 14.4275 153.918 11.6618C166.653 4.04748 173.02 0.239534 173.02 0.239534C173.675 -0.174238 174.002 -0.0591285 174 0.587973C162.805 7.46031 157.206 10.8949 157.206 10.8949C145.158 18.0675 136.924 23.2676 132.506 26.4954C137.786 32.4841 141.168 42.0242 142.653 55.1187C143.284 72.592 142.024 85.4531 138.873 93.7005C141.182 100.452 143.584 106.487 146.082 111.808C149.111 117.39 149.553 120.199 147.412 120.235C145.938 120.342 145.389 120.132 145.767 119.608C146.771 119.423 147.273 119.329 147.273 119.329C146.196 116.572 145.006 113.787 143.704 110.973C141.197 105.311 139.308 100.483 138.036 96.4881C135.446 102.886 131.784 107.436 127.05 110.138C119.582 114.179 113.728 113.854 109.486 109.163C106.21 114.546 104.133 116.172 103.258 114.038C102.776 112.124 102.531 110.349 102.521 108.71C102.243 114.005 100.599 116.722 97.5888 116.858C89.0928 117.64 90.7042 110.365 89.1569 112.331C86.7828 115.466 84.8713 116.603 83.4194 115.744C82.7614 115.299 82.2597 114.73 81.9158 114.038C79.1651 123.939 72.8212 130.903 62.881 134.93C69.2874 143.73 62.0042 148.424 53.3644 148.998C36.5349 148.97 25.5022 145.882 20.2664 139.735L20.2649 139.738ZM141.804 66.3356C141.394 76.7126 140.299 85.0222 138.515 91.2677C133.056 76.2973 128.625 58.2826 125.221 37.2254C124.893 35.5532 124.806 33.8312 124.959 32.0595C127.297 30.336 129.494 28.7167 131.546 27.2047L131.657 27.3353C139.075 35.9763 142.457 48.9759 141.804 66.3356ZM125.331 29.5489C125.531 28.5922 125.796 27.6231 126.129 26.64C126.994 24.2756 128.489 24.1309 130.616 26.2045C128.813 27.2825 127.051 28.3978 125.331 29.5504V29.5489ZM100.976 73.6824C100.344 65.0025 99.2315 57.2435 97.6357 50.4039C102.918 45.5911 111.572 39.8092 123.596 33.0628C124.268 50.183 128.863 70.7736 137.381 94.8361C133.68 105.127 127.197 110.651 117.929 111.41C115.119 111.631 112.716 110.494 110.72 107.997C110.056 107.103 109.42 107.115 108.814 108.032C106.086 112.641 104.675 114.062 104.58 112.297C102.178 86.5529 100.976 73.6793 100.976 73.6793V73.6824ZM92.7391 54.8076C93.5956 53.0732 94.7443 51.5581 96.1853 50.2639C93.8222 40.8529 90.4869 35.491 86.1795 34.1766C83.771 33.2075 81.933 34.595 80.6686 38.3376C79.5105 45.3935 80.2451 53.3905 82.8724 62.3301C85.756 72.0522 89.3241 80.2467 93.5784 86.9138C95.9102 91.5104 97.0778 93.8079 97.0778 93.8079C99.4018 97.7683 101.057 101.9 102.046 106.204C100.349 85.4391 98.972 70.6507 97.9186 61.8417C97.5716 58.1551 97.0356 54.8123 96.3088 51.8132C94.9741 53.5585 94.1566 54.9507 93.8597 55.9913C93.6268 56.3056 93.744 56.6307 94.2098 56.9667C94.7365 57.7351 94.4442 57.9902 93.3345 57.732C92.3468 57.0398 92.1483 56.066 92.7391 54.8076ZM60.6554 115.868C62.6794 113.513 64.383 109.659 65.7631 104.308C62.7247 103.83 60.6945 104.897 59.6755 107.511C59.0738 108.968 58.8987 111.289 59.1503 114.475C59.4723 116.682 59.974 117.146 60.6554 115.867V115.868ZM67.6182 103.158C71.6006 103.367 74.0903 105.073 75.0874 108.277C76.8442 106.252 78.8385 106.182 81.0703 108.069C81.3282 103.094 80.6515 98.5787 79.0416 94.5234C77.1911 89.8413 75.5829 84.7345 74.2138 79.2014C72.8759 80.6387 71.4302 81.4274 69.8751 81.569C70.1814 89.2891 69.4297 96.4849 67.6182 103.158ZM61.0555 134.415C48.8226 138.693 36.6693 137.231 24.5988 130.027C28.4014 128.226 31.8539 126.032 34.9548 123.445C50.1104 126.365 58.8096 130.022 61.0555 134.413V134.415ZM23.5157 130.62C35.6237 138.187 48.4756 139.766 62.0714 135.355C73.1135 151.851 39.3544 149.813 25.2178 142.375C18.1971 138.68 18.9989 132.791 23.5157 130.618V130.62ZM62.2746 68.7047C61.8073 63.1546 62.0277 60.4386 62.9389 60.5568C63.4687 60.8695 63.2936 63.7021 62.4137 69.0531L62.2746 68.7047ZM63.9891 62.4017C66.7258 66.3465 68.0559 72.0927 67.9777 79.6385C65.0848 77.8652 63.3593 74.7433 62.7998 70.2711C63.7031 67.6858 64.1001 65.0617 63.9891 62.4017ZM68.5169 81.5518C65.4833 80.7694 63.3015 78.1577 61.9714 73.7166C59.5958 81.7447 57.1811 85.3085 54.7288 84.4078C52.6642 83.6347 51.5452 80.477 51.3701 74.9362C51.1857 69.8356 51.3951 65.8783 52 63.0628C52.7236 61.0126 53.3879 60.3391 53.9943 61.0437C53.7848 64.6417 53.6801 66.4414 53.6801 66.4414C52.9284 79.1003 53.9552 84.4856 56.7591 82.5987C58.497 81.5114 60.0834 78.0752 61.5166 72.2918C59.7364 65.3681 59.899 60.9582 62.0058 59.0589C55.5994 51.9065 47.0862 48.4704 36.4661 48.7519C21.398 48.9681 10.7154 56.9076 4.41841 72.5702C-1.89579 88.4164 0.506418 103.692 11.625 118.395C15.5699 123.318 19.4412 126.962 23.2407 129.328C28.042 126.836 31.3538 124.735 33.1777 123.024C29.2892 121.751 24.5363 122.041 20.4071 121.736C18.9208 121.68 18.8348 119.877 20.232 118.497C30.6661 109.293 28.3874 101.956 34.997 93.0426C35.8175 91.9086 36.4833 91.2008 36.9912 90.9193C37.5336 90.9068 37.6633 91.1868 37.3757 91.7546C35.2892 93.8608 33.7263 96.3216 32.687 99.1371C29.9956 108.371 29.0813 111.287 21.7012 118.637C20.3618 120.071 20.5009 120.756 22.1216 120.692C27.1073 120.633 31.2475 121.109 34.5422 122.12C38.2244 119.602 40.9064 117.64 42.5896 116.236C43.779 115.361 44.6949 115.344 44.4433 116.444C44.1729 117.189 43.0288 118.199 41.0142 119.474C39.5435 120.415 38.0744 121.459 36.6068 122.609C51.9343 125.863 58.9909 128.823 62.2168 133.925C72.1257 129.798 78.354 122.335 80.7593 112.44C81.1547 110.897 80.5936 109.458 79.0791 108.122C77.0552 107.585 75.9814 108.259 75.8611 110.141C75.8845 113.322 75.8955 114.912 75.8955 114.912C76.0815 116.043 75.7314 116.542 74.8452 116.41C74.1903 116.204 73.8981 115.195 73.97 113.38C74.5326 107.895 72.3633 104.83 67.462 104.186C65.5583 111.505 63.6 115.811 61.5838 117.105C59.7521 118.043 58.7143 117.463 58.4705 115.364C57.3921 108.893 58.5471 104.947 61.9339 103.525C63.2811 103.225 64.6221 103.155 65.9569 103.317C67.8027 96.4367 68.6545 89.1133 68.5107 81.345L68.5138 81.5534L68.5169 81.5518Z" fill="#AE1613"/>
</g>
</g>
<defs>
<clipPath id="clip0_135_723">
<rect width="174" height="149" fill="white"/>
</clipPath>
</defs>
</svg>
