<svg width="358" height="375" viewBox="0 0 358 375" fill="none" xmlns="http://www.w3.org/2000/svg">
<path d="M-22.7107 326.915L-246.257 326.846V291.333L329.561 291.577C322.668 354.393 269.445 401.314 204.247 401.314H-22.6063V333.976L-22.7107 326.915ZM-50.3146 354.532V429H204.247C289.043 429 358 361.141 358 277.768V263.925L-274 263.682C-274 293.977 -273.965 324.272 -273.965 354.532C-199.438 354.532 -124.911 354.532 -50.3494 354.532H-50.3146Z" fill="#AE1613" fill-opacity="0.18"/>
<path d="M-125.399 225.178C-119.725 222.222 -106.01 217.561 -95.1143 217.735C-88.4309 217.839 -81.2254 219.335 -67.6845 224.656C-59.4347 227.891 -49.1659 231.891 -36.7041 233.456C-32.9795 233.908 -29.4637 234.117 -26.0524 234.117C-10.3534 234.117 2.35205 229.734 14.9531 224.795L16.5195 224.169C25.2567 220.726 32.7755 217.804 42 217.77C51.8859 217.804 59.9965 221.004 69.4995 224.691L71.1007 225.317C76.4613 227.404 82.7967 229.804 90.037 231.543L91.0813 231.787C93.9705 232.447 96.7204 232.969 99.5748 233.352L100.863 233.491C104.204 233.874 107.407 234.082 109.878 234.047L110.749 234.082C111.584 234.082 112.419 234.047 113.22 234.013L114.856 233.943C115.448 233.943 116.005 233.908 116.527 233.874C117.711 233.804 118.824 233.665 120.286 233.491L125.369 232.76C126.308 232.587 127.248 232.447 128.223 232.239L128.989 232.065C137.273 230.256 144.862 227.508 151.789 224.761L153.355 224.135C157.846 222.361 162.093 220.726 166.2 219.543C167.906 219.091 169.646 218.709 171.595 218.396L172.292 218.222C174.485 217.909 176.747 217.735 179.079 217.7C188.965 217.735 197.111 220.935 206.544 224.622L220.677 229.978V229.734C227.813 231.995 236.828 234.047 247.515 234.047C264.397 234.047 277.207 229.039 288.555 224.622C298.023 220.9 306.204 217.7 316.124 217.7C326.045 217.7 334.225 220.9 343.659 224.587L357.826 230.187V200.587L353.196 198.813C341.466 194.257 330.57 190.466 316.089 190.466C300.356 190.466 288.59 195.057 277.207 199.509C267.6 203.265 258.515 206.813 247.48 206.813C236.445 206.813 227.186 203.196 218.449 199.752L216.326 198.813C208.285 195.683 198.782 192.205 187.712 191.022C184.858 190.709 182.247 190.535 179.845 190.5L178.836 190.466C163.102 190.5 151.406 195.057 140.093 199.509C130.52 203.265 121.505 206.778 110.505 206.813C99.5052 206.778 90.5244 203.265 80.9866 199.544L79.2113 198.813C77.0879 197.979 74.8949 197.179 72.4931 196.309L69.4647 195.3C68.1071 194.848 66.6451 194.396 64.5913 193.805C64.1736 193.666 63.7211 193.527 62.8857 193.318L58.6737 192.344C57.6642 192.135 56.62 191.927 55.2276 191.683L54.7054 191.579C54.1833 191.44 53.696 191.37 52.8954 191.231L51.2941 191.057C47.9524 190.64 44.9936 190.466 41.9304 190.466H41.2342C39.3545 190.5 37.5096 190.57 35.7691 190.709C35.1425 190.744 34.516 190.814 33.6458 190.918L32.2882 191.092C31.6268 191.161 30.9654 191.231 30.3737 191.335C27.937 191.683 25.6048 192.17 22.7852 192.831L20.7314 193.353C18.5036 193.944 16.3107 194.64 14.0829 195.37L11.7158 196.17C9.87091 196.831 8.06082 197.492 6.28555 198.187L2.24765 199.752C-6.55914 203.196 -15.6444 206.744 -26.6094 206.778C-37.6092 206.744 -46.3463 203.335 -56.5107 199.37L-59.4695 198.222C-68.1718 194.848 -77.64 191.509 -89.4752 190.64C-91.0764 190.535 -92.6429 190.466 -94.453 190.466H-95.358C-95.7409 190.466 -96.1238 190.5 -96.646 190.535C-99.013 190.605 -101.276 190.744 -103.399 190.987C-105.592 191.231 -107.715 191.544 -110.465 192.066C-111.127 192.205 -111.753 192.309 -112.345 192.448C-119.968 194.118 -126.791 196.622 -133.231 199.126L-134.832 199.857C-143.604 203.265 -152.654 206.813 -163.654 206.813C-174.689 206.813 -183.774 203.265 -193.416 199.474C-204.764 195.057 -216.46 190.466 -232.229 190.466C-246.744 190.466 -257.848 194.327 -269.858 199.022L-273.965 200.587V230.952L-259.833 224.587C-250.364 220.865 -242.184 217.665 -232.263 217.665C-222.343 217.665 -214.163 220.865 -204.66 224.587C-175.35 236.065 -166.578 233.943 -163.689 234.013C-153.594 234.256 -144.544 232.413 -136.851 229.839C-131.49 227.926 -131.281 227.578 -125.538 225.074L-125.399 225.178Z" fill="#AE1613" fill-opacity="0.18"/>
<path d="M-245.63 133.423C-238.877 71.8246 -187.29 27.4777 -121.535 27.4777H205.569C271.324 27.4777 322.912 71.7899 329.665 133.423H-245.63ZM357.93 147.162C357.93 64.6248 291.027 0 205.569 0H-121.535C-206.992 0 -273.896 64.6248 -273.896 147.162V160.901H357.896V147.162H357.93Z" fill="#AE1613" fill-opacity="0.18"/>
</svg>
