<svg width="16" height="14" viewBox="0 0 16 14" fill="none" xmlns="http://www.w3.org/2000/svg">
<path d="M0.981069 6.0969L10.5119 1.94183C11.4526 1.50913 14.6432 0.123645 14.6432 0.123645C14.6432 0.123645 16.1156 -0.482417 15.9927 0.989055C15.9518 1.59512 15.6248 3.71599 15.2971 6.01022L14.2746 12.8062C14.2746 12.8062 14.1926 13.8017 13.4971 13.975C12.8015 14.1484 11.6567 13.369 11.4519 13.1956C11.2881 13.0656 8.38418 11.1181 7.32065 10.166C7.03461 9.90594 6.70697 9.38656 7.3616 8.78118C8.83404 7.35305 10.5932 5.5782 11.6567 4.45276C12.1475 3.93337 12.6383 2.72125 10.5932 4.19272L4.82564 8.30514C4.82564 8.30514 4.17101 8.73784 2.94431 8.34848C1.71696 7.95911 0.285484 7.43973 0.285484 7.43973C0.285484 7.43973 -0.696137 6.79033 0.981069 6.09759V6.0969Z" fill="#1A1C24"/>
</svg>
