<svg width="15" height="15" viewBox="0 0 15 15" fill="none" xmlns="http://www.w3.org/2000/svg">
<path d="M7.50194 3.64825C5.37526 3.64825 3.65298 5.37218 3.65298 7.49713C3.65298 9.62377 5.37696 11.346 7.50194 11.346C9.62919 11.346 11.3509 9.62207 11.3509 7.49713C11.3509 5.36992 9.62693 3.64825 7.50194 3.64825ZM7.50194 9.99537C6.12129 9.99537 5.00366 8.87718 5.00366 7.49713C5.00366 6.11707 6.12186 4.99889 7.50194 4.99889C8.88202 4.99889 10.0002 6.11707 10.0002 7.49713C10.0008 8.87718 8.88259 9.99537 7.50194 9.99537Z" fill="#1A1C24"/>
<path d="M10.5924 0.0470945C9.21234 -0.0173835 5.79437 -0.0139899 4.41316 0.0470945C3.19937 0.10422 2.12867 0.397198 1.26556 1.2603C-0.176743 2.70257 0.00764514 4.64652 0.00764514 7.49713C0.00764514 10.4145 -0.154684 12.3132 1.26556 13.734C2.71408 15.1813 4.68578 14.9918 7.50251 14.9918C10.3928 14.9918 11.3905 14.9935 12.412 14.5982C13.8017 14.0592 14.8503 12.8171 14.9527 10.5864C15.0177 9.20579 15.0138 5.78846 14.9527 4.40728C14.8288 1.77443 13.4159 0.177182 10.5924 0.0470945ZM12.7768 12.7798C11.8311 13.7255 10.5195 13.6412 7.48441 13.6412C4.35943 13.6412 3.10604 13.6876 2.19146 12.7707C1.13829 11.7227 1.3289 10.0395 1.3289 7.48751C1.3289 4.03455 0.974834 1.54762 4.44031 1.37002C5.23669 1.34174 5.47085 1.33269 7.47536 1.33269L7.50364 1.35136C10.8345 1.35136 13.4476 1.00239 13.6043 4.46779C13.6399 5.2585 13.6478 5.49605 13.6478 7.49713C13.6473 10.5858 13.7061 11.8466 12.7768 12.7804V12.7798Z" fill="#1A1C24"/>
<path d="M12.4029 3.49667C12.4029 3.99326 12.0002 4.39596 11.5036 4.39596C11.007 4.39596 10.6043 3.99326 10.6043 3.49667C10.6043 3.00007 11.007 2.59737 11.5036 2.59737C12.0002 2.59737 12.4029 3.00007 12.4029 3.49667Z" fill="#1A1C24"/>
</svg>
