<svg width="20" height="20" viewBox="0 0 20 20" fill="none" xmlns="http://www.w3.org/2000/svg">
<path d="M10.0026 4.86433C7.16701 4.86433 4.87065 7.16291 4.87065 9.99617C4.87065 12.8317 7.16927 15.128 10.0026 15.128C12.8389 15.128 15.1345 12.8294 15.1345 9.99617C15.1345 7.15989 12.8359 4.86433 10.0026 4.86433ZM10.0026 13.3272C8.16173 13.3272 6.67154 11.8362 6.67154 9.99617C6.67154 8.1561 8.16248 6.66518 10.0026 6.66518C11.8427 6.66518 13.3336 8.1561 13.3336 9.99617C13.3344 11.8362 11.8435 13.3272 10.0026 13.3272Z" fill="white"/>
<path d="M14.1232 0.0627926C12.2831 -0.023178 7.72583 -0.0186532 5.88421 0.0627926C4.26582 0.13896 2.83823 0.529598 1.68741 1.6804C-0.235657 3.60342 0.0101935 6.19536 0.0101935 9.99617C0.0101935 13.886 -0.206246 16.4176 1.68741 18.3119C3.61877 20.2418 6.24771 19.9891 10.0033 19.9891C13.857 19.9891 15.1873 19.9914 16.5493 19.4643C18.4022 18.7456 19.8004 17.0895 19.9369 14.1152C20.0236 12.2744 20.0184 7.71795 19.9369 5.87637C19.7718 2.3659 17.8879 0.236242 14.1232 0.0627926ZM17.0357 17.0397C15.7748 18.3006 14.0259 18.1883 9.97921 18.1883C5.81257 18.1883 4.14139 18.2501 2.92194 17.0277C1.51773 15.6303 1.77187 13.386 1.77187 9.98335C1.77187 5.3794 1.29978 2.06349 5.92041 1.8267C6.98225 1.78899 7.29446 1.77693 9.96714 1.77693L10.0049 1.80181C14.446 1.80181 17.9301 1.33652 18.139 5.95706C18.1866 7.01133 18.1971 7.32806 18.1971 9.99617C18.1964 14.1145 18.2748 15.7954 17.0357 17.0405V17.0397Z" fill="white"/>
<path d="M16.5372 4.66222C16.5372 5.32435 16.0003 5.86129 15.3382 5.86129C14.676 5.86129 14.1391 5.32435 14.1391 4.66222C14.1391 4.0001 14.676 3.46316 15.3382 3.46316C16.0003 3.46316 16.5372 4.0001 16.5372 4.66222Z" fill="white"/>
</svg>
