<svg width="1030" height="292" viewBox="0 0 1030 292" fill="none" xmlns="http://www.w3.org/2000/svg">
<path fill-rule="evenodd" clip-rule="evenodd" d="M919.035 -0.000244141H29C12.9837 -0.000244141 0 12.9835 0 28.9998V263C0 279.016 12.9837 292 29 292H1001C1017.02 292 1030 279.016 1030 263V134.55C1023.46 131.888 1018.6 125.752 1017.93 118.24C1016.25 118.892 1014.45 119.324 1012.55 119.488C1001.84 120.417 992.398 112.486 991.469 101.768C991.417 101.171 991.395 100.581 991.397 99.992C990.737 100.119 990.066 100.214 989.384 100.274C978.67 101.203 969.228 93.2717 968.299 82.5531C968.164 81.0009 968.217 79.4776 968.435 77.9978C957.904 78.6763 948.708 70.8147 947.791 60.2473C947.594 57.9761 947.798 55.7649 948.337 53.6768C939.188 52.7745 931.686 45.4697 930.863 35.9807C930.589 32.819 931.085 29.7675 932.201 27.0162C924.278 25.1105 918.1 18.3246 917.358 9.75873C917.057 6.29009 917.684 2.95548 919.035 -0.000244141Z" fill="white"/>
</svg>
