<svg width="1030" height="292" viewBox="0 0 1030 292" fill="none" xmlns="http://www.w3.org/2000/svg">
<path fill-rule="evenodd" clip-rule="evenodd" d="M29 0C12.9837 0 0 12.9837 0 29V263C0 279.016 12.9837 292 29 292H906.378C908.781 286.787 913.479 282.698 919.503 281.291C920.08 281.157 920.655 281.051 921.232 280.971C921.014 280.343 920.827 279.699 920.673 279.039C918.253 268.676 924.69 258.311 935.057 255.891C936.558 255.54 938.057 255.377 939.537 255.382C937.389 245.164 943.792 235.048 954.013 232.662C956.21 232.149 958.404 232.036 960.525 232.27C960.12 223.182 966.217 214.805 975.394 212.662C978.452 211.948 981.511 212.004 984.363 212.709C985.113 204.681 990.888 197.674 999.173 195.739C1003.25 194.787 1007.33 195.206 1010.92 196.696C1012.44 189.63 1017.88 183.714 1025.39 181.961C1026.93 181.599 1028.48 181.436 1030 181.453V29C1030 12.9837 1017.02 0 1001 0H29Z" fill="white"/>
</svg>
