<svg width="67" height="58" viewBox="0 0 67 58" fill="none" xmlns="http://www.w3.org/2000/svg">
<path id="Vector" d="M4.10823 25.2586L44.0186 8.04473C47.9576 6.25209 61.3182 0.512244 61.3182 0.512244C61.3182 0.512244 67.484 -1.99858 66.9695 4.09751C66.798 6.60834 65.4287 15.3948 64.0567 24.8995L59.7747 53.0544C59.7747 53.0544 59.4317 57.1783 56.5189 57.8965C53.6062 58.6147 48.8124 55.3857 47.9549 54.6675C47.2689 54.1288 35.1088 46.0605 30.6552 42.1162C29.4574 41.0389 28.0855 38.8872 30.8267 36.3792C36.9925 30.4626 44.3588 23.1097 48.8124 18.4471C50.8676 16.2954 52.9229 11.2738 44.3588 17.3698L20.2074 34.407C20.2074 34.407 17.4661 36.1996 12.3293 34.5865C7.18977 32.9735 1.19546 30.8217 1.19546 30.8217C1.19546 30.8217 -2.91507 28.1314 4.10823 25.2614V25.2586Z" fill="white"/>
</svg>
