<svg width="1280" height="1159" viewBox="0 0 1280 1159" fill="none" xmlns="http://www.w3.org/2000/svg">
<path fill-rule="evenodd" clip-rule="evenodd" d="M1181.78 0.125606C1177.01 0.910528 1174.63 2.54741 1171.62 5.19734C1168.58 7.85937 1165.76 11.0233 1162.08 11.0484C1161.63 11.0512 1161.2 11.0158 1160.8 10.9478C1158.8 10.4925 1157.05 9.16105 1155.32 7.64335C1154.58 6.91988 1153.91 6.23179 1153.23 5.75414C1153.05 5.58933 1152.86 5.42639 1152.68 5.26438C1149.66 2.61445 1147.28 0.977567 1142.51 0.192646C1138.05 -0.541065 1133.85 2.11631 1131.38 4.17033C1129.32 5.88822 1125.82 9.98415 1122.79 10.9972C1118.16 12.5447 1114.63 8.65919 1112.43 6.64614C1096.24 -8.13236 1089.06 6.64241 1083.13 10.3445C1076.95 14.2086 1072.57 7.48041 1068.25 4.18709C1062.95 0.149815 1057.32 -1.32319 1051.2 2.33884C1050.05 3.02693 1048.95 3.93755 1047.86 4.918C1045.99 5.86494 1044.34 7.79884 1043.18 8.83982C1041.12 10.6853 1039.28 11.4367 1037.57 11.4665C1037.56 11.4665 1037.55 11.4674 1037.54 11.4665H1037.51C1035.8 11.4367 1033.96 10.6853 1031.9 8.83982C1030.74 7.79884 1029.09 5.86494 1027.22 4.918C1026.13 3.93755 1025.03 3.02693 1023.88 2.33884C1017.77 -1.32319 1012.13 0.149815 1006.83 4.18709C1002.51 7.48134 998.134 14.2086 991.947 10.3445C986.019 6.64241 978.837 -8.13236 962.652 6.64614C960.448 8.65919 956.924 12.5447 952.289 10.9972C949.257 9.98508 945.763 5.88822 943.697 4.17033C941.226 2.11631 937.032 -0.541065 932.569 0.192646C927.796 0.976636 925.419 2.61445 922.402 5.26438C922.217 5.42546 922.035 5.58933 921.852 5.75414C921.176 6.23179 920.501 6.91988 919.76 7.64335C918.036 9.16105 916.277 10.4925 914.284 10.9478C913.877 11.0158 913.451 11.0512 913 11.0484C909.324 11.0233 906.496 7.85937 903.463 5.19734C900.445 2.54741 898.068 0.910528 893.295 0.125606C888.832 -0.608105 884.638 2.04927 882.167 4.10329C880.101 5.82118 876.607 9.91711 873.575 10.9302C868.941 12.4776 865.417 8.59215 863.212 6.5791C847.029 -8.1994 839.845 6.57537 833.918 10.2774C827.73 14.1415 823.351 7.41337 819.031 4.12005C813.734 0.0827756 808.1 -1.39023 801.984 2.2718C800.628 3.08373 799.336 4.20478 798.06 5.38449C796.561 6.40498 795.244 7.90127 794.273 8.77278C794.127 8.90407 793.982 9.02883 793.837 9.14895C792.153 10.4441 790.403 11.3734 788.48 11.3985C786.557 11.3743 784.806 10.4441 783.123 9.14895C782.978 9.02883 782.833 8.90407 782.687 8.77278C781.717 7.90127 780.4 6.40498 778.901 5.38449C777.624 4.20478 776.332 3.0828 774.977 2.2718C768.86 -1.39023 763.226 0.0827756 757.93 4.12005C753.609 7.4143 749.229 14.1415 743.042 10.2774C737.114 6.57537 729.932 -8.1994 713.748 6.5791C711.544 8.59215 708.02 12.4776 703.385 10.9302C700.353 9.91804 696.859 5.82118 694.793 4.10329C692.322 2.04927 688.128 -0.608105 683.665 0.125606C678.892 0.910528 676.515 2.54741 673.497 5.19734C670.464 7.85937 667.636 11.0233 663.961 11.0484C663.51 11.0512 663.082 11.0158 662.676 10.9478C660.684 10.4925 658.925 9.16105 657.2 7.64335C656.459 6.91988 655.785 6.23179 655.108 5.75414C654.926 5.58933 654.743 5.42639 654.558 5.26438C651.54 2.61445 649.163 0.977567 644.391 0.192646C639.928 -0.541065 635.733 2.11631 633.263 4.17033C631.197 5.88822 627.703 9.98415 624.671 10.9972C620.037 12.5447 616.513 8.65919 614.308 6.64614C598.124 -8.13236 590.941 6.64241 585.013 10.3445C578.826 14.2086 574.446 7.48041 570.126 4.18709C564.83 0.149815 559.195 -1.32319 553.079 2.33884C551.929 3.02693 550.827 3.93755 549.74 4.918C547.87 5.86494 546.217 7.79884 545.057 8.83982C543.001 10.6853 541.156 11.4367 539.448 11.4665H539.39C537.682 11.4357 535.837 10.6853 533.782 8.83982C532.622 7.79884 530.968 5.86494 529.099 4.918C528.012 3.93755 526.909 3.02693 525.76 2.33884C519.643 -1.32319 514.009 0.149815 508.713 4.18709C504.393 7.48134 500.013 14.2086 493.826 10.3445C487.898 6.64241 480.715 -8.13236 464.532 6.64614C462.327 8.65919 458.804 12.5447 454.168 10.9972C451.137 9.98508 447.643 5.88822 445.577 4.17033C443.106 2.11631 438.912 -0.541065 434.449 0.192646C429.675 0.976636 427.299 2.61445 424.281 5.26438C424.097 5.42546 423.913 5.58933 423.73 5.75414C423.054 6.23179 422.38 6.91988 421.64 7.64335C419.915 9.16105 418.156 10.4925 416.163 10.9478C415.758 11.0158 415.33 11.0512 414.879 11.0484C411.204 11.0233 408.375 7.85937 405.343 5.19734C402.324 2.54741 399.948 0.910528 395.176 0.125606C390.712 -0.608105 386.517 2.04927 384.047 4.10329C381.981 5.82118 378.488 9.91711 375.456 10.9302C370.821 12.4776 367.298 8.59215 365.093 6.5791C348.909 -8.1994 341.726 6.57537 335.798 10.2774C329.611 14.1415 325.232 7.41337 320.911 4.12005C315.616 0.0827756 309.981 -1.39023 303.864 2.2718C302.73 2.95058 301.642 3.84723 300.567 4.81279C298.667 5.74576 296.984 7.71784 295.809 8.77278C293.749 10.6229 291.9 11.3724 290.189 11.4004H290.186C288.475 11.3734 286.626 10.6229 284.566 8.77278C283.391 7.71691 281.708 5.74576 279.808 4.81279C278.735 3.84723 277.645 2.95058 276.511 2.2718C270.394 -1.39023 264.761 0.0827756 259.464 4.12005C255.144 7.4143 250.764 14.1415 244.577 10.2774C238.649 6.57537 231.466 -8.1994 215.283 6.5791C213.078 8.59215 209.555 12.4776 204.919 10.9302C201.888 9.91804 198.394 5.82118 196.328 4.10329C193.857 2.04927 189.663 -0.608105 185.2 0.125606C180.426 0.910528 178.05 2.54741 175.032 5.19734C171.999 7.85937 169.171 11.0233 165.495 11.0484C165.044 11.0512 164.618 11.0158 164.211 10.9478C162.219 10.4925 160.459 9.16105 158.734 7.64335C157.994 6.91988 157.32 6.23179 156.644 5.75414C156.461 5.58933 156.278 5.42639 156.094 5.26438C153.075 2.61445 150.699 0.977567 145.926 0.192646C141.463 -0.541065 137.268 2.11631 134.798 4.17033C132.732 5.88822 129.239 9.98415 126.207 10.9972C121.572 12.5447 118.049 8.65919 115.844 6.64614C99.6601 -8.13236 92.4766 6.64241 86.5493 10.3445C80.3623 14.2086 75.9827 7.48041 71.6621 4.18709C66.3666 0.149815 60.7318 -1.32319 54.6151 2.33884C53.4658 3.02693 52.3634 3.93755 51.276 4.918C49.4068 5.86494 47.7532 7.79884 46.5936 8.83982C44.5378 10.6853 42.693 11.4367 40.985 11.4665C40.9756 11.4665 40.9662 11.4674 40.9559 11.4665H40.9269C39.2189 11.4367 37.3741 10.6853 35.3183 8.83982C34.1587 7.79884 32.5051 5.86494 30.6359 4.918C29.5485 3.93755 28.446 3.02693 27.2968 2.33884C21.1801 -1.32319 15.5453 0.149815 10.2498 4.18709C7.09253 6.59399 3.90342 10.8342 0 11.4348L0 1159H1280V8.12939C1277.71 6.14148 1275.51 3.71502 1273.09 2.27087C1266.98 -1.39116 1261.34 0.0818439 1256.05 4.11912C1251.73 7.41337 1247.35 14.1406 1241.16 10.2765C1235.23 6.57444 1228.05 -8.20034 1211.86 6.57817C1209.66 8.59121 1206.14 12.4767 1201.5 10.9292C1198.47 9.91711 1194.98 5.82025 1192.91 4.10236C1190.44 2.04834 1186.24 -0.609036 1181.78 0.124675L1181.78 0.125606Z" fill="#AE1613"/>
</svg>
