<svg width="39" height="52" viewBox="0 0 39 52" fill="none" xmlns="http://www.w3.org/2000/svg">
<path d="M18.9618 52V41.1551L18.7442 41.1187L16.9386 46.2117H15.5844L13.7788 41.1187L13.5597 41.1551V52H11.8453V35.0738H13.5906L16.2608 43.4874L18.9324 35.0738H20.6778V52H18.9618Z" fill="#A3121B"/>
<path d="M0.102926 52V35.0738H1.81884V50.3018H3.87442V35.0738H5.59033V50.3018H7.64738V35.0738H9.36329V52H0.102926Z" fill="#A3121B"/>
<path d="M37.0459 52L34.061 46.2117H33.1921V52H31.4761V35.0738H33.1921V43.2512L33.4097 43.2906L36.5974 35.0738H38.4354L34.9183 44.1389L38.9721 52H37.0459Z" fill="#A3121B"/>
<path d="M24.3052 48.6737H27.6796L26.1034 39.8258H25.8829L24.3066 48.6737H24.3052ZM28.2722 52L27.9825 50.3718H24.0023L23.7126 52H21.9702L24.9859 35.0738H26.9974L30.0131 52H28.2707H28.2722Z" fill="#A3121B"/>
<path d="M15.505 20.0164L1.71004 20.0135V17.8401L37.2444 17.8561C36.8195 21.7014 33.5361 24.5744 29.5117 24.5744H15.5124V20.4507L15.5065 20.0178L15.505 20.0164ZM13.8023 21.7072V26.2667H29.5117C34.7433 26.2667 39 22.1125 39 17.0078V16.1609L0 16.1449C0.00147037 17.999 0.00147037 19.8531 0.00294073 21.7087C4.60225 21.7087 9.20155 21.7087 13.8023 21.7087V21.7072Z" fill="#A3121B"/>
<path d="M9.16921 13.7849C9.51915 13.6027 10.3646 13.3185 11.0366 13.3302C11.4497 13.3374 11.8938 13.4278 12.7304 13.7529C13.2392 13.9511 13.8729 14.196 14.6419 14.2907C14.8713 14.3184 15.0889 14.3301 15.2992 14.3301C16.2681 14.3301 17.0518 14.0619 17.8297 13.7587L17.9267 13.7208C18.4649 13.5109 18.931 13.3302 19.4985 13.3287C20.1087 13.3302 20.6101 13.5255 21.1953 13.7529L21.2938 13.7908C21.6247 13.919 22.0143 14.0648 22.4613 14.1727L22.526 14.1887C22.7039 14.2295 22.8745 14.2601 23.0509 14.2835L23.1303 14.2922C23.3377 14.3155 23.5332 14.3286 23.6861 14.3272L23.7405 14.3286C23.7935 14.3286 23.8435 14.3257 23.8935 14.3243L23.9949 14.3199C24.0302 14.3184 24.0655 14.3184 24.0978 14.3155C24.1699 14.3112 24.239 14.3024 24.3287 14.2922L24.6433 14.247C24.7007 14.2368 24.7595 14.2281 24.8198 14.2149L24.8683 14.2033C25.38 14.094 25.8476 13.9234 26.2769 13.7572L26.374 13.7193C26.6504 13.6115 26.9121 13.5094 27.168 13.4395C27.2738 13.4118 27.3812 13.3885 27.5017 13.3681L27.5458 13.3579C27.6796 13.3374 27.8223 13.3272 27.9634 13.3272C28.5736 13.3287 29.0765 13.524 29.6588 13.7514L30.5322 14.0794V14.0634C30.9733 14.2004 31.5291 14.3272 32.1878 14.3272C33.2288 14.3272 34.0199 14.0196 34.7198 13.7485C35.3035 13.5211 35.8078 13.3258 36.421 13.3258C37.0326 13.3258 37.537 13.5211 38.1207 13.7485L38.9956 14.0925V12.2807L38.7103 12.1713C37.9869 11.8915 37.315 11.6597 36.421 11.6597C35.4491 11.6597 34.7242 11.941 34.0213 12.2136C33.4288 12.4439 32.8686 12.6611 32.1878 12.6611C31.5085 12.6611 30.9365 12.4395 30.3954 12.2296L30.2646 12.1713C29.7676 11.9789 29.1809 11.7676 28.4986 11.6932C28.3237 11.6728 28.1605 11.6626 28.012 11.6612L27.9487 11.6597C26.9783 11.6612 26.2563 11.941 25.5579 12.2136C24.9668 12.4425 24.411 12.6596 23.7332 12.6611C23.0553 12.6596 22.4995 12.4439 21.9114 12.2151L21.8026 12.1713C21.6703 12.1203 21.535 12.0708 21.3894 12.0183L21.2027 11.9556C21.1174 11.9279 21.0277 11.9017 20.9013 11.8638C20.8748 11.855 20.8483 11.8463 20.7969 11.8332L20.5381 11.7734C20.4749 11.7603 20.4116 11.7486 20.3263 11.7326L20.294 11.7267C20.2617 11.7195 20.2308 11.7136 20.1823 11.7063L20.0837 11.6961C19.8779 11.6714 19.6941 11.6597 19.5059 11.6597H19.5044L19.4618 11.6612C19.3456 11.6626 19.2324 11.667 19.1251 11.6757C19.0854 11.6786 19.0471 11.683 18.9942 11.6888L18.9104 11.6991C18.8707 11.7034 18.8295 11.7078 18.7913 11.7136C18.6413 11.7355 18.4972 11.7646 18.3222 11.8055L18.1958 11.8361C18.0576 11.8725 17.9238 11.9133 17.7841 11.96L17.637 12.0095C17.5238 12.0503 17.4121 12.0912 17.3003 12.1334L17.0518 12.2296C16.5093 12.441 15.9476 12.6582 15.2712 12.6596C14.5934 12.6582 14.0523 12.4483 13.4259 12.2049L13.2421 12.1349C12.7054 11.9294 12.1202 11.7238 11.3909 11.6714C11.2924 11.6641 11.1954 11.6612 11.0836 11.6597L11.0292 11.6582C11.0042 11.6582 10.9822 11.6597 10.9498 11.6626C10.8043 11.6655 10.6646 11.6757 10.5322 11.6903C10.397 11.7049 10.2661 11.7238 10.097 11.7559C10.0573 11.7632 10.0176 11.7705 9.98232 11.7792C9.5118 11.8827 9.09128 12.0343 8.69428 12.1888L8.59576 12.234C8.05614 12.4439 7.4974 12.6596 6.81662 12.6596C6.13731 12.6596 5.57563 12.441 4.97866 12.2107C4.27877 11.9396 3.55535 11.6582 2.58343 11.6582C1.68798 11.6582 1.00279 11.8958 0.261725 12.183L0.0088222 12.2792V14.1391L0.88075 13.7485C1.46449 13.5211 1.97029 13.3258 2.58196 13.3258C3.19364 13.3258 3.69944 13.5226 4.28612 13.75C6.09467 14.4525 6.63723 14.3228 6.81515 14.3272C7.43711 14.3418 7.99585 14.2295 8.47078 14.0721C8.80161 13.954 8.81485 13.9336 9.16774 13.782L9.16921 13.7849Z" fill="#A3121B"/>
<path d="M1.74974 8.16864C2.16585 4.39626 5.35066 1.68358 9.4074 1.68358H29.5926C33.6493 1.68358 36.8327 4.39771 37.2503 8.16864H1.74974ZM38.9941 9.0097C38.9941 3.9575 34.8653 0 29.5926 0H9.4074C4.13467 0 0.00588147 3.9575 0.00588147 9.0097V9.85076H38.9941V9.0097Z" fill="#A3121B"/>
</svg>
