<svg width="65" height="65" viewBox="0 0 65 65" fill="none" xmlns="http://www.w3.org/2000/svg">
<g id="Vector">
<path d="M32.5 65C50.4493 65 65 50.4493 65 32.5C65 14.5507 50.4493 0 32.5 0C14.5507 0 0 14.5507 0 32.5C0 50.4493 14.5507 65 32.5 65Z" fill="#AE1613"/>
<path fill-rule="evenodd" clip-rule="evenodd" d="M26.5315 21.289C25.0094 21.7232 24.9008 23.3539 24.9008 25.0953C24.9008 30.2067 24.7923 36.0779 24.9008 41.0807C25.0094 42.7114 25.7716 44.0164 27.5108 43.6907C28.3815 43.4736 30.3379 42.2771 31.1 41.8429C34.4722 39.8866 37.9506 37.928 41.2142 35.9716C42.302 35.4288 43.7156 34.6667 44.4755 33.9068C47.0854 31.5139 42.0826 29.5576 40.452 28.5783C39.4727 27.9269 38.2763 27.2733 37.1907 26.622L30.3401 22.707C29.4694 22.2728 27.8387 21.0764 26.5338 21.2935L26.5315 21.289Z" fill="white"/>
</g>
</svg>
