<svg width="23" height="14" viewBox="0 0 23 14" fill="none" xmlns="http://www.w3.org/2000/svg">
<path d="M11.2539 13.9411H12.6282C12.6282 13.9411 13.0436 13.892 13.255 13.648C13.4504 13.4241 13.4433 13.004 13.4433 13.004C13.4433 13.004 13.4158 11.0364 14.2729 10.7464C15.1167 10.4612 16.2006 12.6481 17.3493 13.49C17.9461 13.9276 18.4446 13.9984 18.698 14C18.7038 14 18.7094 14 18.7149 14C18.8196 13.9993 18.8776 13.9872 18.8776 13.9872L21.9496 13.9411C21.9496 13.9411 23.557 13.8354 22.795 12.4871C22.7332 12.3768 22.3509 11.4901 20.5105 9.66807C18.5841 7.76007 18.843 8.06989 21.1633 4.77115C22.5765 2.76207 23.1416 1.53496 22.9647 1.01047C22.7965 0.510336 21.7571 0.642365 21.7571 0.642365L18.3011 0.663766C18.3011 0.663766 18.0452 0.62689 17.8539 0.748054C17.6684 0.867571 17.5489 1.14381 17.5489 1.14381C17.5489 1.14381 17.0011 2.69885 16.2709 4.02112C14.7312 6.81085 14.1145 6.95802 13.863 6.78484C13.2779 6.38151 13.4245 5.1623 13.4245 4.29703C13.4245 1.59324 13.8084 0.465887 12.6754 0.174502C12.2989 0.078032 12.0227 0.0134992 11.061 0.00263399C10.961 0.00164625 10.8625 0.000658498 10.7653 0H10.3777C9.44533 0.00625573 8.66975 0.0658498 8.19169 0.315421C7.79788 0.520872 7.4945 0.979516 7.67999 1.00553C7.90868 1.03779 8.42625 1.15435 8.70062 1.55307C9.05585 2.06703 9.04288 3.22335 9.04288 3.22335C9.04288 3.22335 9.24689 6.40587 8.56698 6.8013C8.09972 7.0726 7.45994 6.51913 6.08717 3.98688C5.38412 2.69095 4.85235 1.25707 4.85235 1.25707C4.85235 1.25707 4.7502 0.990381 4.5678 0.847487C4.34651 0.674302 4.03604 0.618988 4.03604 0.618988L0.749473 0.640389C0.749473 0.640389 0.256287 0.655864 0.0751237 0.884363C-0.0859793 1.08817 0.0621614 1.50862 0.0621614 1.50862C0.0621614 1.50862 2.63549 7.92996 5.548 11.1678C8.22039 14.1353 11.2539 13.9407 11.2539 13.9407V13.9411Z" fill="#1A1C24"/>
</svg>
