<svg width="22" height="19" viewBox="0 0 22 19" fill="none" xmlns="http://www.w3.org/2000/svg">
<path d="M1.30809 8.1292L14.0159 2.58911C15.2701 2.01217 19.5242 0.16486 19.5242 0.16486C19.5242 0.16486 21.4874 -0.643222 21.3236 1.31874C21.269 2.12682 20.833 4.95465 20.3962 8.01363L19.0327 17.075C19.0327 17.075 18.9235 18.4022 17.9961 18.6334C17.0686 18.8645 15.5422 17.8253 15.2692 17.5941C15.0508 17.4208 11.1789 14.8241 9.76087 13.5546C9.37949 13.2079 8.94263 12.5154 9.81547 11.7082C11.7787 9.80406 14.1242 7.4376 15.5422 5.93701C16.1967 5.2445 16.8511 3.62833 14.1242 5.5903L6.43419 11.0735C6.43419 11.0735 5.56135 11.6505 3.92575 11.1313C2.28928 10.6121 0.380645 9.91964 0.380645 9.91964C0.380645 9.91964 -0.928183 9.05377 1.30809 8.13011V8.1292Z" fill="white"/>
</svg>
