<svg width="31" height="19" viewBox="0 0 31 19" fill="none" xmlns="http://www.w3.org/2000/svg">
<path d="M15.0052 18.5881H16.8376C16.8376 18.5881 17.3915 18.5227 17.6734 18.1974C17.9338 17.8989 17.9244 17.3387 17.9244 17.3387C17.9244 17.3387 17.8877 14.7152 19.0305 14.3285C20.1555 13.9483 21.6007 16.8641 23.1323 17.9867C23.9282 18.5701 24.5928 18.6645 24.9306 18.6667C24.9384 18.6667 24.9458 18.6667 24.9532 18.6667C25.0927 18.6658 25.1701 18.6495 25.1701 18.6495L29.2662 18.5881C29.2662 18.5881 31.4093 18.4472 30.3933 16.6495C30.311 16.5024 29.8011 15.3202 27.3474 12.8908C24.7788 10.3468 25.124 10.7599 28.2177 6.36153C30.1019 3.68276 30.8554 2.04661 30.6196 1.34729C30.3953 0.680448 29.0094 0.856487 29.0094 0.856487L24.4014 0.885021C24.4014 0.885021 24.0603 0.835854 23.8051 0.997405C23.5578 1.15676 23.3986 1.52508 23.3986 1.52508C23.3986 1.52508 22.6682 3.59847 21.6946 5.36149C19.6416 9.08113 18.8194 9.27736 18.484 9.04645C17.7038 8.50867 17.8993 6.88306 17.8993 5.72937C17.8993 2.12431 18.4112 0.621183 16.9006 0.232669C16.3985 0.104043 16.0302 0.017999 14.748 0.00351199C14.6147 0.00219499 14.4834 0.000877997 14.3538 0H13.8369C12.5938 0.00834098 11.5597 0.0877998 10.9223 0.420561C10.3972 0.694496 9.99267 1.30602 10.24 1.3407C10.5449 1.38372 11.235 1.53913 11.6008 2.07076C12.0745 2.75603 12.0572 4.2978 12.0572 4.2978C12.0572 4.2978 12.3292 8.54116 11.4226 9.0684C10.7996 9.43013 9.94658 8.69218 8.11622 5.31584C7.17882 3.58794 6.4698 1.6761 6.4698 1.6761C6.4698 1.6761 6.3336 1.32051 6.0904 1.12998C5.79535 0.899069 5.38138 0.825318 5.38138 0.825318L0.999297 0.853853C0.999297 0.853853 0.341716 0.874486 0.100165 1.17915C-0.114639 1.45089 0.0828818 2.01149 0.0828818 2.01149C0.0828818 2.01149 3.51398 10.5733 7.39733 14.8904C10.9605 18.8471 15.0052 18.5876 15.0052 18.5876V18.5881Z" fill="white"/>
</svg>
