<svg width="1030" height="292" viewBox="0 0 1030 292" fill="none" xmlns="http://www.w3.org/2000/svg">
<path fill-rule="evenodd" clip-rule="evenodd" d="M29 -0.00012207C12.9837 -0.00012207 0 12.9836 0 28.9999V122.954C3.48114 125.487 6.30357 128.865 8.16328 132.788C12.8164 125.958 20.6728 121.482 29.5744 121.482C42.3368 121.482 52.9581 130.685 55.0992 142.798C59.6006 138.996 65.4339 136.708 71.8066 136.708C86.1201 136.708 97.7192 148.282 97.7192 162.566C97.7192 163.356 97.6854 164.147 97.618 164.921C100.922 163.39 104.581 162.549 108.458 162.549C122.772 162.549 134.371 174.123 134.371 188.407C134.371 191.637 133.764 194.732 132.685 197.575C134.101 197.323 135.551 197.205 137.035 197.205C151.348 197.205 162.947 208.78 162.947 223.063C162.947 228.716 161.143 233.931 158.058 238.188C171.09 239.55 181.256 250.536 181.256 263.911C181.256 271.801 177.716 278.85 172.152 283.594C176.437 285.399 180.135 288.323 182.879 292H1001C1017.02 292 1030 279.016 1030 263V28.9999C1030 12.9836 1017.02 -0.00012207 1001 -0.00012207H29Z" fill="white"/>
</svg>
