<svg width="1030" height="292" viewBox="0 0 1030 292" fill="none" xmlns="http://www.w3.org/2000/svg">
<path fill-rule="evenodd" clip-rule="evenodd" d="M29 0C12.9837 0 0 12.9837 0 29V263C0 279.016 12.9837 292 29 292H895.39C898.347 286.455 903.693 282.366 910.073 281.138C906.896 277.5 904.943 272.752 904.862 267.533C904.68 255.812 914.031 246.165 925.753 245.982C926.402 245.972 927.051 245.99 927.687 246.035C926.388 243.348 925.651 240.363 925.602 237.187C925.419 225.466 934.771 215.819 946.493 215.636C949.143 215.595 951.692 216.052 954.039 216.9C953.814 215.743 953.698 214.557 953.68 213.342C953.497 201.62 962.848 191.973 974.57 191.791C979.209 191.719 983.512 193.129 987.045 195.602C987.997 184.912 996.883 176.446 1007.86 176.275C1014.33 176.174 1020.16 178.983 1024.13 183.479C1025.41 180.307 1027.44 177.51 1030 175.311V29C1030 12.9837 1017.02 0 1001 0H29Z" fill="white"/>
</svg>
