<svg width="1030" height="292" viewBox="0 0 1030 292" fill="none" xmlns="http://www.w3.org/2000/svg">
<path fill-rule="evenodd" clip-rule="evenodd" d="M29 -0.00012207C12.9837 -0.00012207 0 12.9836 0 28.9999V193.434C5.66707 194.833 10.2652 199.442 11.3565 205.554C12.6249 204.93 14.0003 204.47 15.4634 204.213C23.7523 202.756 31.6547 208.293 33.1123 216.585C33.1934 217.046 33.2513 217.505 33.2896 217.965C33.7953 217.82 34.3117 217.7 34.8394 217.607C43.1283 216.15 51.0308 221.687 52.4884 229.979C52.6995 231.18 52.7622 232.371 52.694 233.54C60.8565 232.291 68.5635 237.79 70.0005 245.965C70.3093 247.722 70.302 249.46 70.0246 251.125C77.2182 251.202 83.5662 256.384 84.8565 263.724C85.2865 266.17 85.1079 268.583 84.4265 270.804C90.7332 271.748 96.0128 276.615 97.1777 283.242C97.7184 286.318 97.2961 289.34 96.1271 292H1001C1017.02 292 1030 279.016 1030 263V28.9999C1030 12.9836 1017.02 -0.00012207 1001 -0.00012207H29Z" fill="white"/>
</svg>
