<svg width="1030" height="292" viewBox="0 0 1030 292" fill="none" xmlns="http://www.w3.org/2000/svg">
<path fill-rule="evenodd" clip-rule="evenodd" d="M29 -0.000244141C12.9837 -0.000244141 0 12.9835 0 28.9998V263C0 279.016 12.9837 292 29 292H927.887C925.211 285.419 926.963 277.598 932.732 272.836C935.547 270.512 938.884 269.264 942.27 269.048C937.602 262.011 938.903 252.443 945.563 246.944C949.493 243.701 954.456 242.562 959.101 243.377C957.235 237.14 959.135 230.106 964.472 225.701C969.448 221.592 976.087 220.846 981.642 223.206C981.639 218.39 983.709 213.61 987.714 210.304C994.827 204.432 1005.35 205.438 1011.22 212.551C1012.36 213.934 1013.24 215.446 1013.87 217.026C1019.17 215.385 1024.57 214.165 1030 213.362V28.9998C1030 12.9835 1017.02 -0.000244141 1001 -0.000244141H29Z" fill="white"/>
</svg>
