<svg width="62" height="54" viewBox="0 0 62 54" fill="none" xmlns="http://www.w3.org/2000/svg">
<path id="Vector" d="M3.80164 23.5166L40.7336 7.48992C44.3787 5.82091 56.7422 0.476917 56.7422 0.476917C56.7422 0.476917 62.4479 -1.86075 61.9718 3.81493C61.8131 6.15259 60.546 14.3331 59.2764 23.1823L55.3139 49.3955C55.3139 49.3955 54.9965 53.235 52.3011 53.9036C49.6057 54.5723 45.1696 51.566 44.3761 50.8973C43.7413 50.3958 32.4887 42.884 28.3675 39.2116C27.2591 38.2086 25.9895 36.2053 28.5262 33.8703C34.2319 28.3618 41.0485 21.5159 45.1696 17.1749C47.0715 15.1716 48.9734 10.4962 41.0485 16.1719L18.6994 32.0341C18.6994 32.0341 16.1627 33.7031 11.4092 32.2013C6.65322 30.6994 1.10625 28.6961 1.10625 28.6961C1.10625 28.6961 -2.69753 26.1913 3.80164 23.5193V23.5166Z" fill="#E0E0E0"/>
</svg>
